<svg width="124" height="12" viewBox="0 0 124 12" fill="none" xmlns="http://www.w3.org/2000/svg">
<path d="M-4.17233e-06 11.7954V0.159046H4.65909C5.51515 0.159046 6.22916 0.28594 6.80113 0.539728C7.3731 0.793516 7.80303 1.14579 8.09091 1.59655C8.37878 2.04352 8.52272 2.55867 8.52272 3.142C8.52272 3.59655 8.43181 3.99617 8.25 4.34086C8.06818 4.68177 7.81818 4.96208 7.5 5.18177C7.1856 5.39768 6.82575 5.55109 6.42045 5.642V5.75564C6.86363 5.77458 7.27841 5.89958 7.66477 6.13064C8.05492 6.3617 8.37121 6.68556 8.61363 7.10223C8.85606 7.51511 8.97727 8.00753 8.97727 8.5795C8.97727 9.19693 8.82386 9.74806 8.51704 10.2329C8.21401 10.714 7.76515 11.0947 7.17045 11.375C6.57575 11.6553 5.8428 11.7954 4.97159 11.7954H-4.17233e-06ZM2.46022 9.78405H4.46591C5.15151 9.78405 5.65151 9.65336 5.96591 9.392C6.2803 9.12685 6.4375 8.77458 6.4375 8.33518C6.4375 8.01321 6.35984 7.72912 6.20454 7.48291C6.04924 7.2367 5.82765 7.04352 5.53977 6.90336C5.25568 6.76321 4.91666 6.69314 4.52272 6.69314H2.46022V9.78405ZM2.46022 5.02836H4.28409C4.62121 5.02836 4.92045 4.96965 5.18181 4.85223C5.44697 4.73102 5.6553 4.56056 5.80681 4.34086C5.96212 4.12117 6.03977 3.85791 6.03977 3.55109C6.03977 3.13064 5.89015 2.79162 5.59091 2.53405C5.29545 2.27647 4.875 2.14768 4.32954 2.14768H2.46022V5.02836ZM12.5838 11.7954H9.94744L13.9645 0.159046H17.1349L21.1463 11.7954H18.5099L15.5952 2.81814H15.5043L12.5838 11.7954ZM12.419 7.22155H18.6463V9.142H12.419V7.22155ZM22.5469 11.7954V0.159046H25.0071V9.767H29.9957V11.7954H22.5469ZM33.9276 11.7954H31.2912L35.3082 0.159046H38.4787L42.4901 11.7954H39.8537L36.9389 2.81814H36.848L33.9276 11.7954ZM33.7628 7.22155H39.9901V9.142H33.7628V7.22155ZM53.6236 0.159046V11.7954H51.4986L46.4361 4.47155H46.3508V11.7954H43.8906V0.159046H46.0497L51.0724 7.47723H51.1747V0.159046H53.6236ZM65.9233 4.23291H63.4347C63.3892 3.91094 63.2964 3.62496 63.1562 3.37496C63.0161 3.12117 62.8362 2.90526 62.6165 2.72723C62.3968 2.5492 62.143 2.41283 61.8551 2.31814C61.571 2.22344 61.2623 2.17609 60.929 2.17609C60.3267 2.17609 59.8021 2.32571 59.3551 2.62496C58.9081 2.92041 58.5615 3.35223 58.3153 3.92041C58.0691 4.4848 57.946 5.17041 57.946 5.97723C57.946 6.80677 58.0691 7.50374 58.3153 8.06814C58.5653 8.63253 58.9138 9.05867 59.3608 9.34655C59.8078 9.63443 60.3248 9.77836 60.9119 9.77836C61.2415 9.77836 61.5464 9.7348 61.8267 9.64768C62.1108 9.56056 62.3627 9.43367 62.5824 9.267C62.8021 9.09655 62.9839 8.89011 63.1278 8.64768C63.2756 8.40526 63.3778 8.12874 63.4347 7.81814L65.9233 7.8295C65.8589 8.36359 65.6979 8.87874 65.4403 9.37496C65.1865 9.86738 64.8437 10.3087 64.4119 10.6988C63.9839 11.0852 63.4725 11.392 62.8778 11.6193C62.2869 11.8428 61.6184 11.9545 60.8722 11.9545C59.8343 11.9545 58.9062 11.7197 58.0881 11.25C57.2737 10.7803 56.6297 10.1003 56.1562 9.21018C55.6865 8.32003 55.4517 7.24238 55.4517 5.97723C55.4517 4.70829 55.6903 3.62874 56.1676 2.73859C56.6449 1.84844 57.2926 1.17041 58.1108 0.704501C58.929 0.234804 59.8494 -4.48227e-05 60.8722 -4.48227e-05C61.5464 -4.48227e-05 62.1714 0.0946522 62.7472 0.284046C63.3267 0.47344 63.84 0.749955 64.2869 1.11359C64.7339 1.47344 65.0975 1.91473 65.3778 2.43746C65.6619 2.96018 65.8437 3.55867 65.9233 4.23291ZM67.6875 11.7954V0.159046H75.5284V2.18746H70.1477V4.96018H75.125V6.98859H70.1477V9.767H75.5511V11.7954H67.6875ZM80.7443 2.18746V0.159046H90.3011V2.18746H86.7386V11.7954H84.3068V2.18746H80.7443ZM91.875 11.7954V0.159046H99.7159V2.18746H94.3352V4.96018H99.3125V6.98859H94.3352V9.767H99.7386V11.7954H91.875ZM111.939 4.23291H109.45C109.405 3.91094 109.312 3.62496 109.172 3.37496C109.032 3.12117 108.852 2.90526 108.632 2.72723C108.412 2.5492 108.159 2.41283 107.871 2.31814C107.587 2.22344 107.278 2.17609 106.945 2.17609C106.342 2.17609 105.818 2.32571 105.371 2.62496C104.924 2.92041 104.577 3.35223 104.331 3.92041C104.085 4.4848 103.962 5.17041 103.962 5.97723C103.962 6.80677 104.085 7.50374 104.331 8.06814C104.581 8.63253 104.929 9.05867 105.376 9.34655C105.823 9.63443 106.34 9.77836 106.928 9.77836C107.257 9.77836 107.562 9.7348 107.842 9.64768C108.126 9.56056 108.378 9.43367 108.598 9.267C108.818 9.09655 109 8.89011 109.143 8.64768C109.291 8.40526 109.393 8.12874 109.45 7.81814L111.939 7.8295C111.875 8.36359 111.714 8.87874 111.456 9.37496C111.202 9.86738 110.859 10.3087 110.428 10.6988C110 11.0852 109.488 11.392 108.893 11.6193C108.303 11.8428 107.634 11.9545 106.888 11.9545C105.85 11.9545 104.922 11.7197 104.104 11.25C103.289 10.7803 102.645 10.1003 102.172 9.21018C101.702 8.32003 101.467 7.24238 101.467 5.97723C101.467 4.70829 101.706 3.62874 102.183 2.73859C102.661 1.84844 103.308 1.17041 104.126 0.704501C104.945 0.234804 105.865 -4.48227e-05 106.888 -4.48227e-05C107.562 -4.48227e-05 108.187 0.0946522 108.763 0.284046C109.342 0.47344 109.856 0.749955 110.303 1.11359C110.75 1.47344 111.113 1.91473 111.393 2.43746C111.678 2.96018 111.859 3.55867 111.939 4.23291ZM113.703 11.7954V0.159046H116.163V4.96018H121.158V0.159046H123.612V11.7954H121.158V6.98859H116.163V11.7954H113.703Z" fill="white"/>
</svg>
